<svg xmlns:mydata="http://www.w3.org/2000/svg" xmlns="http://www.w3.org/2000/svg" xmlns:xlink="http://www.w3.org/1999/xlink" mydata:contrastcolor="002d2b" mydata:template="Contrast" mydata:presentation="2.5" mydata:layouttype="undefined" mydata:specialfontid="undefined" mydata:id1="037" mydata:id2="505" mydata:companyname="Virtual Scrum Board" mydata:companytagline="" version="1.1" style="height: 904px;" viewBox="65 179.87 420 110.26"><defs><linearGradient x1="65" y1="235" x2="485" y2="235" gradientUnits="userSpaceOnUse" id="color-144342"><stop offset="0" stop-color="#00968f"></stop><stop offset="1" stop-color="#00fff4"></stop></linearGradient></defs><g fill="url(#color-144342)" fill-rule="none" stroke="none" stroke-width="1" stroke-linecap="butt" stroke-linejoin="miter" stroke-miterlimit="10" stroke-dasharray="" stroke-dashoffset="0" font-family="none" font-weight="none" font-size="none" text-anchor="none" style="mix-blend-mode: normal"><g data-paper-data="{&quot;isGlobalGroup&quot;:true,&quot;bounds&quot;:{&quot;x&quot;:64.99999999999997,&quot;y&quot;:179.87218352928284,&quot;width&quot;:420,&quot;height&quot;:110.25563294143433}}"><g data-paper-data="{&quot;stacked&quot;:true,&quot;isPrimaryText&quot;:true}" fill-rule="nonzero" id="element-id-81555"><path d="M226.37628,228.37908l1.13416,3.95239h0.20621l1.13416,-3.95239l12.92259,-37.59925h7.32051l-18.59341,50.04068h-5.80829l-18.59341,-50.04068h7.35488z" data-paper-data="{&quot;glyphName&quot;:&quot;V&quot;,&quot;glyphIndex&quot;:0,&quot;firstGlyphOfWord&quot;:true,&quot;word&quot;:1,&quot;line&quot;:1,&quot;firstGlyphOfFirstLine&quot;:true}" fill="#ffffff" id="element-id-5384"></path><path d="M263.18505,240.82051h-6.80498v-50.04068h6.80498z" data-paper-data="{&quot;glyphName&quot;:&quot;I&quot;,&quot;glyphIndex&quot;:1,&quot;word&quot;:1,&quot;line&quot;:1}" fill="#ffffff" id="element-id-88194"></path><path d="M282.70641,219.13392v21.68659h-6.77061v-50.00631h18.11225c5.47606,0 9.65758,1.21436 12.54454,3.64307c2.88696,2.42871 4.33044,5.95722 4.33044,10.58553c0,2.56619 -0.67019,4.80015 -2.01056,6.70188c-1.34038,1.90173 -3.29366,3.41395 -5.85985,4.53666c2.74949,0.89358 4.72568,2.34279 5.92858,4.34763c1.2029,2.00484 1.80435,4.4851 1.80435,7.4408v4.7085c0,1.55804 0.17184,2.9557 0.51553,4.19297c0.34369,1.23727 0.93941,2.24542 1.78717,3.02444v0.82485h-6.97683c-0.89358,-0.77902 -1.46639,-1.92464 -1.71843,-3.43686c-0.25204,-1.51222 -0.37805,-3.07026 -0.37805,-4.67413v-4.57102c0,-2.70366 -0.79048,-4.88034 -2.37143,-6.53003c-1.58096,-1.64969 -3.70035,-2.47454 -6.35819,-2.47454zM282.70641,213.80679h10.65427c3.82637,0 6.58159,-0.72747 8.26565,-2.18241c1.68406,-1.45494 2.52609,-3.67171 2.52609,-6.65032c0,-2.81823 -0.81912,-5.00063 -2.45735,-6.54722c-1.63824,-1.54659 -4.18724,-2.31988 -7.64701,-2.31988h-11.34164z" data-paper-data="{&quot;glyphName&quot;:&quot;R&quot;,&quot;glyphIndex&quot;:2,&quot;word&quot;:1,&quot;line&quot;:1}" fill="#ffffff" id="element-id-65558"></path><path d="M354.743,196.10696h-16.08451v44.71355h-6.77061v-44.71355h-16.05014v-5.32713h38.90526z" data-paper-data="{&quot;glyphName&quot;:&quot;T&quot;,&quot;glyphIndex&quot;:3,&quot;word&quot;:1,&quot;line&quot;:1}" fill="#ffffff" id="element-id-59299"></path><path d="M398.66607,190.77983v33.92181c0,5.45315 -1.76998,9.62321 -5.30995,12.51017c-3.53997,2.88696 -8.16254,4.33044 -13.86773,4.33044c-5.49898,0 -9.96117,-1.44921 -13.38657,-4.34763c-3.4254,-2.89842 -5.13811,-7.06275 -5.13811,-12.49299v-33.92181h6.77061v33.92181c0,3.78055 1.07688,6.65032 3.23065,8.60933c2.15377,1.95901 4.9949,2.93852 8.52341,2.93852c3.71181,0 6.70761,-0.97951 8.98739,-2.93852c2.27978,-1.95901 3.41968,-4.82879 3.41968,-8.60933v-33.92181z" data-paper-data="{&quot;glyphName&quot;:&quot;U&quot;,&quot;glyphIndex&quot;:4,&quot;word&quot;:1,&quot;line&quot;:1}" fill="#ffffff" id="element-id-53776"></path><path d="M436.09348,227.93228h-20.96485l-4.74287,12.88823h-6.90809l19.34952,-50.04068h5.80829l19.0402,50.04068h-6.90809zM417.22512,222.26146h16.84061l-8.24846,-22.78638h-0.20621z" data-paper-data="{&quot;glyphName&quot;:&quot;A&quot;,&quot;glyphIndex&quot;:5,&quot;word&quot;:1,&quot;line&quot;:1}" fill="#ffffff" id="element-id-6824"></path><path d="M461.32003,235.52774h23.67997v5.29276h-30.45058v-50.04068h6.77061z" data-paper-data="{&quot;glyphName&quot;:&quot;L&quot;,&quot;glyphIndex&quot;:6,&quot;lastGlyphOfWord&quot;:true,&quot;word&quot;:1,&quot;line&quot;:1,&quot;lastGlyphOfFirstLine&quot;:true}" fill="#ffffff" id="element-id-4532"></path><path d="M223.2704,271.5721c0,-1.3141 -0.49279,-2.41466 -1.47836,-3.30168c-0.98558,-0.88702 -2.73333,-1.63277 -5.24327,-2.23726c-3.03557,-0.72276 -5.40424,-1.78718 -7.106,-3.19327c-1.70176,-1.40609 -2.55264,-3.17356 -2.55264,-5.3024c0,-2.23397 0.91659,-4.1 2.74976,-5.59807c1.83317,-1.49808 4.20841,-2.24711 7.12572,-2.24711c3.1407,0 5.64078,0.86074 7.50023,2.58221c1.85945,1.72147 2.75633,3.71891 2.69062,5.9923l-0.03942,0.11827h-3.70577c0,-1.68205 -0.55521,-3.04215 -1.66562,-4.08029c-1.11042,-1.03814 -2.70376,-1.55721 -4.78004,-1.55721c-1.93173,0 -3.41338,0.43694 -4.44495,1.31082c-1.03157,0.87388 -1.54735,2.01386 -1.54735,3.41995c0,1.2484 0.55849,2.28982 1.67548,3.12428c1.11699,0.83445 2.93045,1.56707 5.44038,2.19783c3.02243,0.74904 5.32211,1.85288 6.89903,3.31154c1.57692,1.45865 2.36538,3.26554 2.36538,5.42067c0,2.31282 -0.94615,4.17227 -2.83846,5.57836c-1.89231,1.40609 -4.36282,2.10913 -7.41153,2.10913c-2.86474,0 -5.39767,-0.77532 -7.59879,-2.32596c-2.20112,-1.55064 -3.26883,-3.62692 -3.20312,-6.22884l0.03942,-0.11827h3.70577c0,1.83974 0.67676,3.23926 2.03029,4.19855c1.35352,0.95929 3.029,1.43894 5.02644,1.43894c1.95801,0 3.50865,-0.41394 4.65192,-1.24183c1.14327,-0.82788 1.7149,-1.95144 1.7149,-3.37067z" data-paper-data="{&quot;glyphName&quot;:&quot;S&quot;,&quot;glyphIndex&quot;:7,&quot;firstGlyphOfWord&quot;:true,&quot;word&quot;:2,&quot;line&quot;:2,&quot;firstGlyphOfSecondLine&quot;:true}" fill="#ffffff" id="element-id-97541"></path><path d="M253.09393,269.62066l0.03942,0.11827c0.05256,2.69391 -0.89359,4.94759 -2.83846,6.76105c-1.94487,1.81346 -4.51394,2.72019 -7.70721,2.72019c-3.24583,0 -5.89046,-1.14984 -7.93389,-3.44952c-2.04343,-2.29968 -3.06514,-5.21698 -3.06514,-8.75192v-5.10528c0,-3.53493 1.02171,-6.45552 3.06514,-8.76177c2.04343,-2.30625 4.68806,-3.45937 7.93389,-3.45937c3.24583,0 5.82804,0.86402 7.74663,2.59207c1.91859,1.72804 2.8516,4.01787 2.79904,6.86947l-0.03942,0.11827h-3.72548c0,-2.01058 -0.59135,-3.60064 -1.77404,-4.77019c-1.18269,-1.16955 -2.8516,-1.75433 -5.00673,-1.75433c-2.16827,0 -3.89631,0.87388 -5.18413,2.62163c-1.28782,1.74776 -1.93173,3.91602 -1.93173,6.5048v5.14471c0,2.61506 0.64391,4.79647 1.93173,6.54423c1.28782,1.74776 3.01586,2.62163 5.18413,2.62163c2.15513,0 3.82404,-0.58149 5.00673,-1.74447c1.18269,-1.16298 1.77404,-2.76947 1.77404,-4.81947z" data-paper-data="{&quot;glyphName&quot;:&quot;C&quot;,&quot;glyphIndex&quot;:8,&quot;word&quot;:2,&quot;line&quot;:2}" fill="#ffffff" id="element-id-83433"></path><path d="M262.25979,266.36826v12.43797h-3.88317v-28.68027h10.38797c3.1407,0 5.53894,0.69647 7.19471,2.08942c1.65577,1.39295 2.48365,3.41666 2.48365,6.07115c0,1.47179 -0.38437,2.75304 -1.15312,3.84375c-0.76875,1.0907 -1.88902,1.95801 -3.36081,2.60192c1.57692,0.5125 2.71033,1.34367 3.40024,2.49351c0.6899,1.14984 1.03485,2.57235 1.03485,4.26754v2.70048c0,0.89359 0.09856,1.69519 0.29567,2.40481c0.19712,0.70961 0.53878,1.28782 1.025,1.73461v0.47308h-4.00144c-0.5125,-0.44679 -0.84102,-1.10385 -0.98558,-1.97115c-0.14455,-0.86731 -0.21683,-1.7609 -0.21683,-2.68077v-2.62163c0,-1.55064 -0.45337,-2.79904 -1.3601,-3.74519c-0.90673,-0.94615 -2.12227,-1.41923 -3.64663,-1.41923zM262.25979,263.31297h6.11057c2.19455,0 3.77476,-0.41723 4.74062,-1.25168c0.96586,-0.83445 1.4488,-2.10585 1.4488,-3.81418c0,-1.61634 -0.46979,-2.86803 -1.40937,-3.75505c-0.93958,-0.88702 -2.40152,-1.33053 -4.38581,-1.33053h-6.5048z" data-paper-data="{&quot;glyphName&quot;:&quot;R&quot;,&quot;glyphIndex&quot;:9,&quot;word&quot;:2,&quot;line&quot;:2}" fill="#ffffff" id="element-id-75786"></path><path d="M306.09822,250.10625v19.45527c0,3.12756 -1.01514,5.51923 -3.04543,7.17499c-2.03029,1.65577 -4.68149,2.48365 -7.9536,2.48365c-3.15384,0 -5.71306,-0.83117 -7.67764,-2.49351c-1.96458,-1.66234 -2.94687,-4.05072 -2.94687,-7.16514v-19.45527h3.88317v19.45527c0,2.16827 0.61763,3.81418 1.85288,4.93774c1.23526,1.12356 2.86474,1.68534 4.88846,1.68534c2.12884,0 3.84703,-0.56178 5.15456,-1.68534c1.30753,-1.12356 1.9613,-2.76947 1.9613,-4.93774v-19.45527z" data-paper-data="{&quot;glyphName&quot;:&quot;U&quot;,&quot;glyphIndex&quot;:10,&quot;word&quot;:2,&quot;line&quot;:2}" fill="#ffffff" id="element-id-96618"></path><path d="M317.41263,250.10625l9.14615,23.31873h0.11827l9.14615,-23.31873h4.9673v28.69998h-3.88317v-11.35384l0.39423,-11.66922l-0.09856,-0.01971l-9.30384,23.04277h-2.58221l-9.26442,-22.98364l-0.09856,0.01971l0.37452,11.61009v11.35384h-3.88317v-28.69998z" data-paper-data="{&quot;glyphName&quot;:&quot;M&quot;,&quot;glyphIndex&quot;:11,&quot;lastGlyphOfWord&quot;:true,&quot;word&quot;:2,&quot;line&quot;:2}" fill="#ffffff" id="element-id-8961"></path><path d="M357.93952,278.80623v-28.69998h9.36297c2.99615,0 5.34182,0.6472 7.03701,1.94159c1.69519,1.29439 2.54279,3.23598 2.54279,5.82476c0,1.27468 -0.40737,2.41466 -1.22211,3.41995c-0.81474,1.00529 -1.88574,1.75104 -3.21298,2.23726c1.73461,0.36795 3.09799,1.21554 4.09014,2.54279c0.99215,1.32724 1.48822,2.87131 1.48822,4.63221c0,2.6282 -0.85088,4.63549 -2.55264,6.02187c-1.70176,1.38638 -4.01129,2.07957 -6.9286,2.07957zM361.82269,265.34326v10.4274h6.72163c1.7609,0 3.13413,-0.43694 4.11971,-1.31082c0.98558,-0.87388 1.47836,-2.11242 1.47836,-3.71562c0,-1.68205 -0.41066,-3.00272 -1.23197,-3.96202c-0.82131,-0.95929 -2.08614,-1.43894 -3.79447,-1.43894zM361.82269,262.30769h6.28798c1.44551,0 2.62163,-0.39752 3.52836,-1.19255c0.90673,-0.79503 1.3601,-1.90216 1.3601,-3.32139c0,-1.55064 -0.4895,-2.71033 -1.46851,-3.47908c-0.97901,-0.76875 -2.38838,-1.15312 -4.22812,-1.15312h-5.4798z" data-paper-data="{&quot;glyphName&quot;:&quot;B&quot;,&quot;glyphIndex&quot;:12,&quot;firstGlyphOfWord&quot;:true,&quot;word&quot;:2,&quot;line&quot;:2}" fill="#ffffff" id="element-id-79185"></path><path d="M405.464,267.01874c0,3.50865 -1.08742,6.41939 -3.26226,8.7322c-2.17484,2.31282 -4.99687,3.46923 -8.4661,3.46923c-3.35096,0 -6.07443,-1.15641 -8.17043,-3.46923c-2.09599,-2.31282 -3.14399,-5.22355 -3.14399,-8.7322v-5.10528c0,-3.49551 1.048,-6.40625 3.14399,-8.7322c2.09599,-2.32596 4.81947,-3.48894 8.17043,-3.48894c3.46923,0 6.29126,1.15969 8.4661,3.47908c2.17484,2.31939 3.26226,5.23341 3.26226,8.74206zM401.58083,261.87403c0,-2.6282 -0.70961,-4.78333 -2.12884,-6.46538c-1.41923,-1.68205 -3.32468,-2.52307 -5.71634,-2.52307c-2.26025,0 -4.06386,0.84102 -5.41081,2.52307c-1.34695,1.68205 -2.02043,3.83718 -2.02043,6.46538v5.14471c0,2.65449 0.67348,4.82275 2.02043,6.5048c1.34695,1.68205 3.15056,2.52307 5.41081,2.52307c2.40481,0 4.31354,-0.83774 5.7262,-2.51322c1.41266,-1.67548 2.11899,-3.84703 2.11899,-6.51466z" data-paper-data="{&quot;glyphName&quot;:&quot;O&quot;,&quot;glyphIndex&quot;:13,&quot;word&quot;:2,&quot;line&quot;:2}" fill="#ffffff" id="element-id-91576"></path><path d="M426.39764,271.41441h-12.02403l-2.72019,7.39182h-3.96202l11.09759,-28.69998h3.33125l10.92018,28.69998h-3.96202zM415.57602,268.16201h9.65865l-4.73077,-13.06874h-0.11827z" data-paper-data="{&quot;glyphName&quot;:&quot;A&quot;,&quot;glyphIndex&quot;:14,&quot;word&quot;:2,&quot;line&quot;:2}" fill="#ffffff" id="element-id-52762"></path><path d="M440.8659,266.36826v12.43797h-3.88317v-28.68027h10.38797c3.1407,0 5.53894,0.69647 7.19471,2.08942c1.65577,1.39295 2.48365,3.41666 2.48365,6.07115c0,1.47179 -0.38437,2.75304 -1.15312,3.84375c-0.76875,1.0907 -1.88902,1.95801 -3.36081,2.60192c1.57692,0.5125 2.71033,1.34367 3.40024,2.49351c0.6899,1.14984 1.03485,2.57235 1.03485,4.26754v2.70048c0,0.89359 0.09856,1.69519 0.29567,2.40481c0.19712,0.70961 0.53878,1.28782 1.025,1.73461v0.47308h-4.00144c-0.5125,-0.44679 -0.84102,-1.10385 -0.98558,-1.97115c-0.14455,-0.86731 -0.21683,-1.7609 -0.21683,-2.68077v-2.62163c0,-1.55064 -0.45337,-2.79904 -1.3601,-3.74519c-0.90673,-0.94615 -2.12227,-1.41923 -3.64663,-1.41923zM440.8659,263.31297h6.11057c2.19455,0 3.77476,-0.41723 4.74062,-1.25168c0.96586,-0.83445 1.4488,-2.10585 1.4488,-3.81418c0,-1.61634 -0.46979,-2.86803 -1.40937,-3.75505c-0.93958,-0.88702 -2.40152,-1.33053 -4.38581,-1.33053h-6.5048z" data-paper-data="{&quot;glyphName&quot;:&quot;R&quot;,&quot;glyphIndex&quot;:15,&quot;word&quot;:2,&quot;line&quot;:2}" fill="#ffffff" id="element-id-92548"></path><path d="M463.73127,278.80623v-28.69998h8.81105c3.75833,0 6.77419,1.15312 9.04759,3.45937c2.2734,2.30625 3.41009,5.28597 3.41009,8.93918v3.92259c0,3.66634 -1.1367,6.64607 -3.41009,8.93918c-2.2734,2.29311 -5.28926,3.43966 -9.04759,3.43966zM467.61444,253.16154v22.60912h4.92788c2.65449,0 4.74719,-0.87388 6.27812,-2.62163c1.53093,-1.74776 2.29639,-3.9883 2.29639,-6.72163v-3.96202c0,-2.70705 -0.76546,-4.93445 -2.29639,-6.68221c-1.53093,-1.74776 -3.62363,-2.62163 -6.27812,-2.62163z" data-paper-data="{&quot;glyphName&quot;:&quot;D&quot;,&quot;glyphIndex&quot;:16,&quot;lastGlyphOfWord&quot;:true,&quot;word&quot;:2,&quot;line&quot;:2,&quot;lastGlyphOfSecondLine&quot;:true}" fill="#ffffff" id="element-id-13832"></path></g><g data-paper-data="{&quot;isIcon&quot;:&quot;true&quot;,&quot;iconType&quot;:&quot;icon&quot;,&quot;rawIconId&quot;:&quot;19501&quot;,&quot;selectedEffects&quot;:{&quot;container&quot;:&quot;&quot;,&quot;transformation&quot;:&quot;&quot;,&quot;pattern&quot;:&quot;&quot;},&quot;isDetailed&quot;:false,&quot;fillRule&quot;:&quot;evenodd&quot;,&quot;bounds&quot;:{&quot;x&quot;:64.99999999999997,&quot;y&quot;:179.87218352928284,&quot;width&quot;:92.58909172336428,&quot;height&quot;:110.25563294143433},&quot;iconStyle&quot;:&quot;standalone&quot;,&quot;suitableAsStandaloneIcon&quot;:true}" fill-rule="evenodd" id="element-id-16960"><path d="M79.64336,230.35574l-3.26061,-3.26061l-3.25946,3.26176l-1.20789,1.20904v-51.69374h78.75485v16.04718l-1.20674,-1.20904l-3.26176,-3.26292l-3.26061,3.26061l-0.14522,0.14522v-7.10557h-63.00388v42.75675zM150.67024,202.44173l-4.4685,-4.47311l-3.40584,3.40468l-8.01379,8.01379l-1.98702,1.98702l-7.87548,7.87548l-7.87433,7.87433l-7.87548,7.87548l-7.87433,7.87433l-7.82707,7.82592l-13.67635,-13.6752l-3.40814,-3.40814l-4.4685,4.47081l-6.9154,6.91886l6.9154,6.9177l7.87663,7.87894l8.01379,8.0161l5.66601,5.66717l6.98225,-6.9834l4.40857,-4.40857l3.46576,-3.46576l7.87663,-7.87663l15.75212,-15.75212l10.83873,-10.83989l7.87433,-7.87433l6.91886,-6.91886zM134.15051,203.49864h-46.34469v7.87548h38.46805zM118.3984,219.24961h-30.59256v7.87433h22.71823zM142.79592,282.25233h-63.00388v-15.92847l-7.87663,-7.87894v31.68289h78.75485v-67.32254l-7.87433,7.87433zM92.16253,242.87376l-4.3567,-4.35555v-3.51879h14.8439l-7.87548,7.87433zM130.60176,242.87376l4.18036,-4.18036v4.18036zM134.78212,258.62818h-19.93479l7.87663,-7.87663h12.05815zM134.78212,274.37685h-35.6823l7.87433,-7.87433h27.80796z" data-paper-data="{&quot;isPathIcon&quot;:true}" id="element-id-15469"></path></g><path d="M176.99298,290.12782v-110.25563h2.02837v110.25563z" data-paper-data="{&quot;isShapeTextSeparator&quot;:true}" fill-rule="nonzero" id="element-id-12839"></path></g></g><rect data-element-id="element-id-81555" stroke-width="2" fill="transparent" class="invisible-element-box grouping-element" x="206" y="191" width="279" height="88" data-element-name="isPrimaryText"></rect><rect data-element-id="element-id-16960" stroke-width="2" fill="transparent" class="invisible-element-box grouping-element" x="65" y="180" width="93" height="110" data-element-name="isIcon"></rect><rect data-element-id="element-id-15469" stroke-width="2" fill="transparent" class="invisible-element-box individual-element" x="65" y="180" width="93" height="110"></rect><rect data-element-id="element-id-6824" stroke-width="2" fill="transparent" class="invisible-element-box individual-element" x="403" y="191" width="44" height="50"></rect><rect data-element-id="element-id-5384" stroke-width="2" fill="transparent" class="invisible-element-box individual-element" x="206" y="191" width="43" height="50"></rect><rect data-element-id="element-id-59299" stroke-width="2" fill="transparent" class="invisible-element-box individual-element" x="316" y="191" width="39" height="50"></rect><rect data-element-id="element-id-53776" stroke-width="2" fill="transparent" class="invisible-element-box individual-element" x="361" y="191" width="38" height="51"></rect><rect data-element-id="element-id-65558" stroke-width="2" fill="transparent" class="invisible-element-box individual-element" x="276" y="191" width="37" height="50"></rect><rect data-element-id="element-id-4532" stroke-width="2" fill="transparent" class="invisible-element-box individual-element" x="455" y="191" width="30" height="50"></rect><rect data-element-id="element-id-8961" stroke-width="2" fill="transparent" class="invisible-element-box individual-element" x="312" y="250" width="28" height="29"></rect><rect data-element-id="element-id-52762" stroke-width="2" fill="transparent" class="invisible-element-box individual-element" x="408" y="250" width="25" height="29"></rect><rect data-element-id="element-id-91576" stroke-width="2" fill="transparent" class="invisible-element-box individual-element" x="382" y="250" width="23" height="30"></rect><rect data-element-id="element-id-83433" stroke-width="2" fill="transparent" class="invisible-element-box individual-element" x="232" y="250" width="22" height="30"></rect><rect data-element-id="element-id-96618" stroke-width="2" fill="transparent" class="invisible-element-box individual-element" x="284" y="250" width="22" height="29"></rect><rect data-element-id="element-id-97541" stroke-width="2" fill="transparent" class="invisible-element-box individual-element" x="206" y="250" width="21" height="30"></rect><rect data-element-id="element-id-75786" stroke-width="2" fill="transparent" class="invisible-element-box individual-element" x="258" y="250" width="21" height="29"></rect><rect data-element-id="element-id-92548" stroke-width="2" fill="transparent" class="invisible-element-box individual-element" x="437" y="250" width="21" height="29"></rect><rect data-element-id="element-id-13832" stroke-width="2" fill="transparent" class="invisible-element-box individual-element" x="464" y="250" width="21" height="29"></rect><rect data-element-id="element-id-79185" stroke-width="2" fill="transparent" class="invisible-element-box individual-element" x="358" y="250" width="20" height="29"></rect><rect data-element-id="element-id-88194" stroke-width="2" fill="transparent" class="invisible-element-box individual-element" x="256" y="191" width="7" height="50"></rect><rect data-element-id="element-id-12839" stroke-width="2" fill="transparent" class="invisible-element-box individual-element" x="177" y="180" width="2" height="110"></rect></svg>